<?xml version="1.0" encoding="utf-8"?>
<!-- Generator: Adobe Illustrator 25.2.0, SVG Export Plug-In . SVG Version: 6.00 Build 0)  -->
<svg version="1.1" id="Capa_1" xmlns="http://www.w3.org/2000/svg" xmlns:xlink="http://www.w3.org/1999/xlink" x="0px" y="0px"
	 viewBox="0 0 1056 236" style="enable-background:new 0 0 1056 236;" xml:space="preserve">
<style type="text/css">
	.st0{fill:#010101;}
</style>
<g>
	<path d="M266.3,73.7v50.4c0,15.1,5.7,22.8,15.9,22.8c10.4,0,16.1-7.3,16.1-22.8V73.7h19.8v49.1c0,27-13.7,39.9-36.5,39.9
		c-22.1,0-35.1-12.2-35.1-40.2V73.7H266.3z"/>
	<path d="M335.2,74.8c6.4-1,15.9-1.8,26.4-1.8c13,0,22.1,2,28.3,6.9c5.2,4.2,8.1,10.3,8.1,18.3c0,11.2-7.9,18.9-15.5,21.6v0.4
		c6.1,2.5,9.5,8.3,11.7,16.4c2.7,9.9,5.5,21.3,7.2,24.7h-20.3c-1.4-2.5-3.5-9.6-6.1-20.4c-2.3-10.9-6.1-13.9-14.2-14h-6v34.5h-19.6
		V74.8z M354.9,112.5h7.8c9.9,0,15.7-4.9,15.7-12.6c0-8.1-5.5-12.1-14.6-12.2c-4.8,0-7.5,0.4-9,0.7V112.5z"/>
	<path d="M412.3,73.7h19.9v71h34.8v16.6h-54.7V73.7z"/>
	<path d="M478.5,147.5c5.1,3.1,12.5,5.7,20.3,5.7c11.6,0,18.3-6.1,18.3-15c0-8.2-4.7-12.9-16.5-17.4c-14.3-5.1-23.1-12.5-23.1-24.8
		c0-13.7,11.3-23.8,28.3-23.8c9,0,15.5,2.1,19.4,4.3l-3.1,9.2c-2.9-1.6-8.7-4.2-16.6-4.2c-12,0-16.5,7.1-16.5,13.1
		c0,8.2,5.3,12.2,17.4,16.9c14.8,5.7,22.4,12.9,22.4,25.7c0,13.5-10,25.2-30.7,25.2c-8.5,0-17.7-2.5-22.4-5.6L478.5,147.5z"/>
	<path d="M543.8,69h11.4v39.3h0.3c1.8-3.2,4.7-6.1,8.2-8.1c3.4-1.9,7.4-3.2,11.7-3.2c8.5,0,22,5.2,22,26.9v37.4h-11.4v-36.1
		c0-10.1-3.8-18.7-14.6-18.7c-7.4,0-13.3,5.2-15.3,11.4c-0.7,1.6-0.8,3.3-0.8,5.5v38h-11.4V69z"/>
	<path d="M672.8,129.3c0,23.3-16.1,33.4-31.3,33.4c-17,0-30.2-12.5-30.2-32.4c0-21.1,13.8-33.4,31.2-33.4
		C660.6,96.9,672.8,110.1,672.8,129.3z M622.9,130c0,13.8,7.9,24.2,19.1,24.2c10.9,0,19.1-10.3,19.1-24.4c0-10.7-5.3-24.2-18.9-24.2
		C628.8,105.5,622.9,118,622.9,130z"/>
	<path d="M687.3,118c0-7.4-0.1-13.8-0.5-19.6h10l0.4,12.4h0.5c2.9-8.5,9.8-13.8,17.4-13.8c1.3,0,2.2,0.1,3.2,0.4v10.8
		c-1.2-0.3-2.3-0.4-3.9-0.4c-8.1,0-13.8,6.1-15.3,14.7c-0.3,1.6-0.5,3.4-0.5,5.3v33.5h-11.3V118z"/>
	<path d="M746.7,80.3v18.1h16.4v8.7h-16.4V141c0,7.8,2.2,12.2,8.6,12.2c3,0,5.2-0.4,6.6-0.8l0.5,8.6c-2.2,0.9-5.7,1.6-10.1,1.6
		c-5.3,0-9.6-1.7-12.4-4.8c-3.2-3.4-4.4-9-4.4-16.4v-34.3h-9.8v-8.7h9.8V83.3L746.7,80.3z"/>
	<path d="M781.5,131.9c0.3,15.5,10.1,21.8,21.6,21.8c8.2,0,13.1-1.4,17.4-3.2l2,8.2c-4,1.8-10.9,3.9-20.9,3.9
		c-19.4,0-30.9-12.7-30.9-31.7s11.2-33.9,29.5-33.9c20.5,0,26,18.1,26,29.6c0,2.3-0.3,4.2-0.4,5.3H781.5z M815.1,123.7
		c0.1-7.3-3-18.6-15.9-18.6c-11.6,0-16.6,10.7-17.6,18.6H815.1z"/>
	<path d="M840.3,115.4c0-6.5-0.1-11.8-0.5-17h10.1l0.7,10.4h0.3c3.1-6,10.4-11.8,20.8-11.8c8.7,0,22.2,5.2,22.2,26.8v37.6h-11.4V125
		c0-10.1-3.8-18.6-14.6-18.6c-7.5,0-13.4,5.3-15.3,11.7c-0.5,1.4-0.8,3.4-0.8,5.3v37.8h-11.4V115.4z"/>
	<path d="M918.8,131.9c0.3,15.5,10.1,21.8,21.6,21.8c8.2,0,13.1-1.4,17.4-3.2l2,8.2c-4,1.8-10.9,3.9-20.9,3.9
		c-19.4,0-30.9-12.7-30.9-31.7s11.2-33.9,29.5-33.9c20.5,0,26,18.1,26,29.6c0,2.3-0.3,4.2-0.4,5.3H918.8z M952.3,123.7
		c0.1-7.3-3-18.6-15.9-18.6c-11.6,0-16.6,10.7-17.6,18.6H952.3z"/>
	<path d="M977.6,118c0-7.4-0.1-13.8-0.5-19.6h10l0.4,12.4h0.5c2.9-8.5,9.8-13.8,17.4-13.8c1.3,0,2.2,0.1,3.2,0.4v10.8
		c-1.2-0.3-2.3-0.4-3.9-0.4c-8.1,0-13.8,6.1-15.3,14.7c-0.3,1.6-0.5,3.4-0.5,5.3v33.5h-11.3V118z"/>
</g>
<path class="st0" d="M196.2,108.4l-35.8,35.8c-19.8,19.8-51.8,19.8-71.6,0c-3.1-3.1-5.5-6.6-7.7-10.2l16.6-16.6
	c0.8-0.8,1.8-1.3,2.7-1.8c1.1,3.9,3.2,7.6,6.2,10.7c9.9,9.9,25.9,9.9,35.8,0l35.8-35.8c9.9-9.9,9.9-25.9,0-35.8
	c-9.9-9.9-25.9-9.9-35.8,0l-12.7,12.7c-10.3-4-21.4-5.1-32.3-3.5l27.1-27.1c19.8-19.8,51.8-19.8,71.6,0
	C216,56.6,216,88.6,196.2,108.4z M101.6,167.2l-12.7,12.7c-9.9,9.9-25.9,9.9-35.8,0c-9.9-9.9-9.9-25.9,0-35.8l35.8-35.8
	c9.9-9.9,25.9-9.9,35.8,0c3.1,3.1,5.1,6.8,6.3,10.7c0.9-0.5,1.9-1,2.7-1.8l16.6-16.6c-2.1-3.6-4.6-7.1-7.7-10.2
	c-19.8-19.8-51.8-19.8-71.6,0l-35.8,35.8c-19.8,19.8-19.8,51.8,0,71.6c19.8,19.8,51.8,19.8,71.6,0l27.1-27.1
	C123,172.3,111.9,171.2,101.6,167.2z"/>
</svg>
